<svg width="360" height="360" viewBox="0 0 360 360" fill="none" xmlns="http://www.w3.org/2000/svg">
  <circle cx="180" cy="180" r="155" stroke="#A9B8BA" stroke-width="2"/>
  <circle cx="180" cy="180" r="140" stroke="#B79254" stroke-opacity=".55"/>
  <path d="M179 284C171 245 174 211 178 177C180 157 180 137 177 116C169 133 154 145 136 153M180 181C190 153 205 134 229 121M179 207C161 188 142 178 117 174M181 225C205 202 229 193 253 192" stroke="#35473F" stroke-width="14" stroke-linecap="round" stroke-linejoin="round"/>
  <path d="M176 284C180 254 184 229 184 205" stroke="#B79254" stroke-width="2.5" stroke-linecap="round"/>
  <g fill="#6F8A72" stroke="#35473F" stroke-width="2">
    <path d="M181 78C167 87 164 101 170 114C158 110 148 116 146 128C141 121 128 122 124 133C116 125 103 132 106 145C91 143 83 156 91 168C79 172 78 188 91 194C82 206 91 220 106 217C105 232 120 238 130 228C136 241 152 241 158 228C169 236 183 230 184 215C198 224 212 216 209 201C224 204 234 191 226 179C240 174 240 158 227 152C233 139 223 127 209 131C210 117 196 109 185 118C192 103 188 88 181 78Z"/>
    <path d="M92 124C79 130 75 141 80 151C70 148 61 154 61 165C53 160 43 166 44 178C33 179 28 191 36 200C28 207 32 220 44 221C41 232 52 241 63 235C68 245 82 246 88 236C98 242 111 235 110 223C123 224 132 214 127 203C138 198 138 184 127 179C132 168 122 158 111 160C113 149 103 140 92 143C98 136 97 129 92 124Z"/>
    <path d="M268 126C281 132 285 143 280 153C290 150 299 156 299 167C307 162 317 168 316 180C327 181 332 193 324 202C332 209 328 222 316 223C319 234 308 243 297 237C292 247 278 248 272 238C262 244 249 237 250 225C237 226 228 216 233 205C222 200 222 186 233 181C228 170 238 160 249 162C247 151 257 142 268 145C262 138 263 131 268 126Z"/>
    <path d="M132 74C120 81 118 92 124 102C113 101 105 109 107 120C97 117 88 126 91 137C80 140 78 153 87 160C80 169 86 181 98 180C97 192 109 199 119 192C126 201 140 198 144 187C155 191 166 182 163 171C175 167 178 153 168 146C175 136 168 124 156 125C159 114 149 104 138 108C143 96 141 82 132 74Z"/>
    <path d="M229 72C242 80 244 92 238 102C249 101 257 109 255 120C265 117 274 126 271 137C282 140 284 153 275 160C282 169 276 181 264 180C265 192 253 199 243 192C236 201 222 198 218 187C207 191 196 182 199 171C187 167 184 153 194 146C187 136 194 124 206 125C203 114 213 104 224 108C219 96 221 82 229 72Z"/>
  </g>
  <g fill="#B79254">
    <circle cx="119" cy="198" r="7"/>
    <path d="M117 192C115 184 117 179 122 175" stroke="#35473F" stroke-width="2"/>
    <circle cx="241" cy="216" r="7"/>
    <path d="M243 210C247 203 251 200 257 199" stroke="#35473F" stroke-width="2"/>
  </g>
</svg>
